<?xml version="1.0" encoding="UTF-8" standalone="no"?><svg xmlns="http://www.w3.org/2000/svg" xmlns:xlink="http://www.w3.org/1999/xlink" contentStyleType="text/css" height="837px" preserveAspectRatio="none" style="width:4462px;height:837px;background:#FFFFFF;" version="1.1" viewBox="0 0 4462 837" width="4462px" zoomAndPan="magnify"><defs/><g><!--MD5=[135f1be0750c66df71f634202c7ffaca]
cluster Codecool.CodecoolShop--><g id="cluster_Codecool.CodecoolShop"><path d="M8.5,6 L200.5,6 A3.75,3.75 0 0 1 203,8.5 L210,28.2969 L4452.5,28.2969 A2.5,2.5 0 0 1 4455,30.7969 L4455,827.5 A2.5,2.5 0 0 1 4452.5,830 L8.5,830 A2.5,2.5 0 0 1 6,827.5 L6,8.5 A2.5,2.5 0 0 1 8.5,6 " fill="none" style="stroke:#000000;stroke-width:1.5;"/><line style="stroke:#000000;stroke-width:1.5;" x1="6" x2="210" y1="28.2969" y2="28.2969"/><text fill="#000000" font-family="sans-serif" font-size="14" font-weight="bold" lengthAdjust="spacing" textLength="191" x="10" y="20.9951">Codecool.CodecoolShop</text></g><!--MD5=[f9d5d626686a2e46b00f48e123a1f164]
cluster Codecool.CodecoolShop.Modal--><g id="cluster_Codecool.CodecoolShop.Modal"><path d="M3286.5,65 L3336.5,65 A3.75,3.75 0 0 1 3339,67.5 L3346,87.2969 L4428.5,87.2969 A2.5,2.5 0 0 1 4431,89.7969 L4431,439 A2.5,2.5 0 0 1 4428.5,441.5 L3286.5,441.5 A2.5,2.5 0 0 1 3284,439 L3284,67.5 A2.5,2.5 0 0 1 3286.5,65 " fill="none" style="stroke:#000000;stroke-width:1.5;"/><line style="stroke:#000000;stroke-width:1.5;" x1="3284" x2="3346" y1="87.2969" y2="87.2969"/><text fill="#000000" font-family="sans-serif" font-size="14" font-weight="bold" lengthAdjust="spacing" textLength="49" x="3288" y="79.9951">Modal</text></g><!--MD5=[1182530b72346b8f25497aded9a3271d]
cluster Codecool.CodecoolShop.Daos--><g id="cluster_Codecool.CodecoolShop.Daos"><path d="M1904.5,57 L1945.5,57 A3.75,3.75 0 0 1 1948,59.5 L1955,79.2969 L3257.5,79.2969 A2.5,2.5 0 0 1 3260,81.7969 L3260,803.5 A2.5,2.5 0 0 1 3257.5,806 L1904.5,806 A2.5,2.5 0 0 1 1902,803.5 L1902,59.5 A2.5,2.5 0 0 1 1904.5,57 " fill="none" style="stroke:#000000;stroke-width:1.5;"/><line style="stroke:#000000;stroke-width:1.5;" x1="1902" x2="1955" y1="79.2969" y2="79.2969"/><text fill="#000000" font-family="sans-serif" font-size="14" font-weight="bold" lengthAdjust="spacing" textLength="40" x="1906" y="71.9951">Daos</text></g><!--MD5=[19fd8da9f0acc54a62c8a2327ac66afe]
cluster Codecool.CodecoolShop.Daos.Implementations--><g id="cluster_Codecool.CodecoolShop.Daos.Implementations"><path d="M1928.5,520 L2067.5,520 A3.75,3.75 0 0 1 2070,522.5 L2077,542.2969 L3233.5,542.2969 A2.5,2.5 0 0 1 3236,544.7969 L3236,779.5 A2.5,2.5 0 0 1 3233.5,782 L1928.5,782 A2.5,2.5 0 0 1 1926,779.5 L1926,522.5 A2.5,2.5 0 0 1 1928.5,520 " fill="none" style="stroke:#000000;stroke-width:1.5;"/><line style="stroke:#000000;stroke-width:1.5;" x1="1926" x2="2077" y1="542.2969" y2="542.2969"/><text fill="#000000" font-family="sans-serif" font-size="14" font-weight="bold" lengthAdjust="spacing" textLength="138" x="1930" y="534.9951">Implementations</text></g><!--MD5=[58a407aac558b54732801616fedb92f5]
cluster Codecool.CodecoolShop.Controllers--><g id="cluster_Codecool.CodecoolShop.Controllers"><path d="M32.5,253 L123.5,253 A3.75,3.75 0 0 1 126,255.5 L133,275.2969 L479.5,275.2969 A2.5,2.5 0 0 1 482,277.7969 L482,447.5 A2.5,2.5 0 0 1 479.5,450 L32.5,450 A2.5,2.5 0 0 1 30,447.5 L30,255.5 A2.5,2.5 0 0 1 32.5,253 " fill="none" style="stroke:#000000;stroke-width:1.5;"/><line style="stroke:#000000;stroke-width:1.5;" x1="30" x2="133" y1="275.2969" y2="275.2969"/><text fill="#000000" font-family="sans-serif" font-size="14" font-weight="bold" lengthAdjust="spacing" textLength="90" x="34" y="267.9951">Controllers</text></g><!--MD5=[0a2d27df61fcce5927eed53458c7be9d]
cluster Codecool.CodecoolShop.Service--><g id="cluster_Codecool.CodecoolShop.Service"><path d="M1208.5,49 L1267.5,49 A3.75,3.75 0 0 1 1270,51.5 L1277,71.2969 L1875.5,71.2969 A2.5,2.5 0 0 1 1878,73.7969 L1878,226.5 A2.5,2.5 0 0 1 1875.5,229 L1208.5,229 A2.5,2.5 0 0 1 1206,226.5 L1206,51.5 A2.5,2.5 0 0 1 1208.5,49 " fill="none" style="stroke:#000000;stroke-width:1.5;"/><line style="stroke:#000000;stroke-width:1.5;" x1="1206" x2="1277" y1="71.2969" y2="71.2969"/><text fill="#000000" font-family="sans-serif" font-size="14" font-weight="bold" lengthAdjust="spacing" textLength="58" x="1210" y="63.9951">Service</text></g><!--MD5=[2e1e3b3ff89682f22d8f654b66758e8e]
class Codecool.CodecoolShop.Program--><g id="elem_Codecool.CodecoolShop.Program"><rect codeLine="3" fill="#F1F1F1" height="80.5938" id="Codecool.CodecoolShop.Program" rx="2.5" ry="2.5" style="stroke:#181818;stroke-width:0.5;" width="390" x="797" y="108"/><ellipse cx="957.25" cy="124" fill="#ADD1B2" rx="11" ry="11" style="stroke:#181818;stroke-width:1.0;"/><path d="M959.5938,119.6719 C958.6563,119.2344 958.0625,119.0938 957.1875,119.0938 C954.5625,119.0938 952.5625,121.1719 952.5625,123.8906 L952.5625,125.0156 C952.5625,127.5938 954.6719,129.4844 957.5625,129.4844 C958.7813,129.4844 959.9375,129.1875 960.6875,128.6406 C961.2656,128.2344 961.5938,127.7813 961.5938,127.3906 C961.5938,126.9375 961.2031,126.5469 960.7344,126.5469 C960.5156,126.5469 960.3125,126.625 960.125,126.8125 C959.6719,127.2969 959.6719,127.2969 959.4844,127.3906 C959.0625,127.6563 958.375,127.7813 957.6094,127.7813 C955.5625,127.7813 954.2656,126.6875 954.2656,124.9844 L954.2656,123.8906 C954.2656,122.1094 955.5156,120.7969 957.25,120.7969 C957.8281,120.7969 958.4375,120.9531 958.9063,121.2031 C959.3906,121.4844 959.5625,121.7031 959.6563,122.1094 C959.7188,122.5156 959.75,122.6406 959.8906,122.7656 C960.0313,122.9063 960.2656,123.0156 960.4844,123.0156 C960.75,123.0156 961.0156,122.875 961.1875,122.6563 C961.2969,122.5 961.3281,122.3125 961.3281,121.8906 L961.3281,120.4688 C961.3281,120.0313 961.3125,119.9063 961.2188,119.75 C961.0625,119.4844 960.7813,119.3438 960.4844,119.3438 C960.1875,119.3438 959.9844,119.4375 959.7656,119.75 L959.5938,119.6719 Z " fill="#000000"/><text fill="#000000" font-family="sans-serif" font-size="14" lengthAdjust="spacing" textLength="61" x="977.75" y="128.8467">Program</text><line style="stroke:#181818;stroke-width:0.5;" x1="798" x2="1186" y1="140" y2="140"/><line style="stroke:#181818;stroke-width:0.5;" x1="798" x2="1186" y1="148" y2="148"/><ellipse cx="808" cy="161.6484" fill="#84BE84" rx="3" ry="3" style="stroke:#038048;stroke-width:1.0;"/><text fill="#000000" font-family="sans-serif" font-size="14" lengthAdjust="spacing" textLength="208" x="817" y="164.9951">static void Main(string[] args)</text><ellipse cx="808" cy="177.9453" fill="#84BE84" rx="3" ry="3" style="stroke:#038048;stroke-width:1.0;"/><text fill="#000000" font-family="sans-serif" font-size="14" lengthAdjust="spacing" textLength="364" x="817" y="181.292">static IHostBuilder CreateHostBuilder(string[] args)</text></g><!--MD5=[48ea4c695fd64a8bda788c82a2e2b4b6]
class Codecool.CodecoolShop.StartUp--><g id="elem_Codecool.CodecoolShop.StartUp"><rect codeLine="11" fill="#F1F1F1" height="129.4844" id="Codecool.CodecoolShop.StartUp" rx="2.5" ry="2.5" style="stroke:#181818;stroke-width:0.5;" width="510" x="252" y="84"/><ellipse cx="474.75" cy="100" fill="#ADD1B2" rx="11" ry="11" style="stroke:#181818;stroke-width:1.0;"/><path d="M477.0938,95.6719 C476.1563,95.2344 475.5625,95.0938 474.6875,95.0938 C472.0625,95.0938 470.0625,97.1719 470.0625,99.8906 L470.0625,101.0156 C470.0625,103.5938 472.1719,105.4844 475.0625,105.4844 C476.2813,105.4844 477.4375,105.1875 478.1875,104.6406 C478.7656,104.2344 479.0938,103.7813 479.0938,103.3906 C479.0938,102.9375 478.7031,102.5469 478.2344,102.5469 C478.0156,102.5469 477.8125,102.625 477.625,102.8125 C477.1719,103.2969 477.1719,103.2969 476.9844,103.3906 C476.5625,103.6563 475.875,103.7813 475.1094,103.7813 C473.0625,103.7813 471.7656,102.6875 471.7656,100.9844 L471.7656,99.8906 C471.7656,98.1094 473.0156,96.7969 474.75,96.7969 C475.3281,96.7969 475.9375,96.9531 476.4063,97.2031 C476.8906,97.4844 477.0625,97.7031 477.1563,98.1094 C477.2188,98.5156 477.25,98.6406 477.3906,98.7656 C477.5313,98.9063 477.7656,99.0156 477.9844,99.0156 C478.25,99.0156 478.5156,98.875 478.6875,98.6563 C478.7969,98.5 478.8281,98.3125 478.8281,97.8906 L478.8281,96.4688 C478.8281,96.0313 478.8125,95.9063 478.7188,95.75 C478.5625,95.4844 478.2813,95.3438 477.9844,95.3438 C477.6875,95.3438 477.4844,95.4375 477.2656,95.75 L477.0938,95.6719 Z " fill="#000000"/><text fill="#000000" font-family="sans-serif" font-size="14" lengthAdjust="spacing" textLength="56" x="495.25" y="104.8467">StartUp</text><line style="stroke:#181818;stroke-width:0.5;" x1="253" x2="761" y1="116" y2="116"/><ellipse cx="263" cy="129.6484" fill="none" rx="3" ry="3" style="stroke:#038048;stroke-width:1.0;"/><text fill="#000000" font-family="sans-serif" font-size="14" lengthAdjust="spacing" textLength="264" x="272" y="132.9951">IConfiguration Configuration { get; }</text><line style="stroke:#181818;stroke-width:0.5;" x1="253" x2="761" y1="140.2969" y2="140.2969"/><ellipse cx="263" cy="153.9453" fill="#84BE84" rx="3" ry="3" style="stroke:#038048;stroke-width:1.0;"/><text fill="#000000" font-family="sans-serif" font-size="14" lengthAdjust="spacing" textLength="268" x="272" y="157.292">StartUp(IConfiguration configuration)</text><ellipse cx="263" cy="170.2422" fill="#84BE84" rx="3" ry="3" style="stroke:#038048;stroke-width:1.0;"/><text fill="#000000" font-family="sans-serif" font-size="14" lengthAdjust="spacing" textLength="394" x="272" y="173.5889">void ConfigurationServices(IServiceCollection services)</text><ellipse cx="263" cy="186.5391" fill="#84BE84" rx="3" ry="3" style="stroke:#038048;stroke-width:1.0;"/><text fill="#000000" font-family="sans-serif" font-size="14" lengthAdjust="spacing" textLength="484" x="272" y="189.8857">void Configure(IApplicationBuilder app, IWebHostEnvironment env)</text><ellipse cx="263" cy="202.8359" fill="#84BE84" rx="3" ry="3" style="stroke:#038048;stroke-width:1.0;"/><text fill="#000000" font-family="sans-serif" font-size="14" lengthAdjust="spacing" textLength="221" x="272" y="206.1826">void SetUpMemoryDatabases()</text></g><!--MD5=[9c97b82d75823218513012bbaf373eee]
class Codecool.CodecoolShop.Controller--><g id="elem_Codecool.CodecoolShop.Controller"><rect fill="#F1F1F1" height="48" id="Codecool.CodecoolShop.Controller" rx="2.5" ry="2.5" style="stroke:#181818;stroke-width:0.5;" width="105" x="111.5" y="124.5"/><ellipse cx="126.5" cy="140.5" fill="#ADD1B2" rx="11" ry="11" style="stroke:#181818;stroke-width:1.0;"/><path d="M128.8438,136.1719 C127.9063,135.7344 127.3125,135.5938 126.4375,135.5938 C123.8125,135.5938 121.8125,137.6719 121.8125,140.3906 L121.8125,141.5156 C121.8125,144.0938 123.9219,145.9844 126.8125,145.9844 C128.0313,145.9844 129.1875,145.6875 129.9375,145.1406 C130.5156,144.7344 130.8438,144.2813 130.8438,143.8906 C130.8438,143.4375 130.4531,143.0469 129.9844,143.0469 C129.7656,143.0469 129.5625,143.125 129.375,143.3125 C128.9219,143.7969 128.9219,143.7969 128.7344,143.8906 C128.3125,144.1563 127.625,144.2813 126.8594,144.2813 C124.8125,144.2813 123.5156,143.1875 123.5156,141.4844 L123.5156,140.3906 C123.5156,138.6094 124.7656,137.2969 126.5,137.2969 C127.0781,137.2969 127.6875,137.4531 128.1563,137.7031 C128.6406,137.9844 128.8125,138.2031 128.9063,138.6094 C128.9688,139.0156 129,139.1406 129.1406,139.2656 C129.2813,139.4063 129.5156,139.5156 129.7344,139.5156 C130,139.5156 130.2656,139.375 130.4375,139.1563 C130.5469,139 130.5781,138.8125 130.5781,138.3906 L130.5781,136.9688 C130.5781,136.5313 130.5625,136.4063 130.4688,136.25 C130.3125,135.9844 130.0313,135.8438 129.7344,135.8438 C129.4375,135.8438 129.2344,135.9375 129.0156,136.25 L128.8438,136.1719 Z " fill="#000000"/><text fill="#000000" font-family="sans-serif" font-size="14" lengthAdjust="spacing" textLength="73" x="140.5" y="145.3467">Controller</text><line style="stroke:#181818;stroke-width:0.5;" x1="112.5" x2="215.5" y1="156.5" y2="156.5"/><line style="stroke:#181818;stroke-width:0.5;" x1="112.5" x2="215.5" y1="164.5" y2="164.5"/></g><!--MD5=[c6e4d712d860cb15eccf14b2f9b52e84]
class Codecool.CodecoolShop.Modal.BaseModel--><g id="elem_Codecool.CodecoolShop.Modal.BaseModel"><rect codeLine="25" fill="#F1F1F1" height="96.8906" id="Codecool.CodecoolShop.Modal.BaseModel" rx="2.5" ry="2.5" style="stroke:#181818;stroke-width:0.5;" width="248" x="3822" y="100"/><ellipse cx="3902.75" cy="116" fill="#A9DCDF" rx="11" ry="11" style="stroke:#181818;stroke-width:1.0;"/><path d="M3904.8281,117.8125 L3905.2188,118.7969 L3904.8281,118.7969 C3904.375,118.7969 3904.2656,118.8125 3904.1094,118.9219 C3903.8594,119.0781 3903.7031,119.3594 3903.7031,119.6563 C3903.7031,119.9219 3903.8438,120.1719 3904.0625,120.3281 C3904.2031,120.4531 3904.4063,120.5 3904.8281,120.5 L3907.1875,120.5 C3907.5469,120.5 3907.7656,120.4688 3907.9063,120.375 C3908.1563,120.2344 3908.3125,119.9375 3908.3125,119.6563 C3908.3125,119.375 3908.1719,119.125 3907.9531,118.9688 C3907.7813,118.8281 3907.625,118.7969 3907.1563,118.7969 L3903.7656,110.5938 L3900.0938,110.5938 C3899.6406,110.5938 3899.5156,110.6094 3899.3594,110.7031 C3899.1094,110.875 3898.9531,111.1563 3898.9531,111.4375 C3898.9531,111.7188 3899.0938,111.9688 3899.3125,112.1406 C3899.4844,112.25 3899.6563,112.2813 3900.0938,112.2813 L3901.1719,112.2813 L3898.5313,118.7969 C3898.1094,118.7969 3897.9531,118.8125 3897.7969,118.9219 C3897.5469,119.0781 3897.3906,119.3594 3897.3906,119.6563 C3897.3906,120.2188 3897.7656,120.5 3898.5156,120.5 L3900.7813,120.5 C3901.1406,120.5 3901.3594,120.4688 3901.4844,120.375 C3901.75,120.2344 3901.8906,119.9375 3901.8906,119.6563 C3901.8906,119.375 3901.7656,119.125 3901.5469,118.9531 C3901.375,118.8281 3901.2344,118.7969 3900.7813,118.7969 L3900.3906,118.7969 L3900.7813,117.8125 L3904.8281,117.8125 Z M3904.125,116.1094 L3901.4531,116.1094 L3902.7969,112.8438 L3904.125,116.1094 Z " fill="#000000"/><text fill="#000000" font-family="sans-serif" font-size="14" font-style="italic" lengthAdjust="spacing" textLength="78" x="3923.25" y="120.8467">BaseModel</text><line style="stroke:#181818;stroke-width:0.5;" x1="3823" x2="4069" y1="132" y2="132"/><ellipse cx="3833" cy="145.6484" fill="none" rx="3" ry="3" style="stroke:#038048;stroke-width:1.0;"/><text fill="#000000" font-family="sans-serif" font-size="14" lengthAdjust="spacing" textLength="131" x="3842" y="148.9951">int ID { get; set; }</text><ellipse cx="3833" cy="161.9453" fill="none" rx="3" ry="3" style="stroke:#038048;stroke-width:1.0;"/><text fill="#000000" font-family="sans-serif" font-size="14" lengthAdjust="spacing" textLength="179" x="3842" y="165.292">string Name { get; set; }</text><ellipse cx="3833" cy="178.2422" fill="none" rx="3" ry="3" style="stroke:#038048;stroke-width:1.0;"/><text fill="#000000" font-family="sans-serif" font-size="14" lengthAdjust="spacing" textLength="222" x="3842" y="181.5889">string Description { get; set; }</text><line style="stroke:#181818;stroke-width:0.5;" x1="3823" x2="4069" y1="188.8906" y2="188.8906"/></g><!--MD5=[0bd75a1bca68f42fb12f7608ccb27303]
class Codecool.CodecoolShop.Modal.ErrorViewModel--><g id="elem_Codecool.CodecoolShop.Modal.ErrorViewModel"><rect codeLine="34" fill="#F1F1F1" height="80.5938" id="Codecool.CodecoolShop.Modal.ErrorViewModel" rx="2.5" ry="2.5" style="stroke:#181818;stroke-width:0.5;" width="238" x="3425" y="108"/><ellipse cx="3483.25" cy="124" fill="#ADD1B2" rx="11" ry="11" style="stroke:#181818;stroke-width:1.0;"/><path d="M3485.5938,119.6719 C3484.6563,119.2344 3484.0625,119.0938 3483.1875,119.0938 C3480.5625,119.0938 3478.5625,121.1719 3478.5625,123.8906 L3478.5625,125.0156 C3478.5625,127.5938 3480.6719,129.4844 3483.5625,129.4844 C3484.7813,129.4844 3485.9375,129.1875 3486.6875,128.6406 C3487.2656,128.2344 3487.5938,127.7813 3487.5938,127.3906 C3487.5938,126.9375 3487.2031,126.5469 3486.7344,126.5469 C3486.5156,126.5469 3486.3125,126.625 3486.125,126.8125 C3485.6719,127.2969 3485.6719,127.2969 3485.4844,127.3906 C3485.0625,127.6563 3484.375,127.7813 3483.6094,127.7813 C3481.5625,127.7813 3480.2656,126.6875 3480.2656,124.9844 L3480.2656,123.8906 C3480.2656,122.1094 3481.5156,120.7969 3483.25,120.7969 C3483.8281,120.7969 3484.4375,120.9531 3484.9063,121.2031 C3485.3906,121.4844 3485.5625,121.7031 3485.6563,122.1094 C3485.7188,122.5156 3485.75,122.6406 3485.8906,122.7656 C3486.0313,122.9063 3486.2656,123.0156 3486.4844,123.0156 C3486.75,123.0156 3487.0156,122.875 3487.1875,122.6563 C3487.2969,122.5 3487.3281,122.3125 3487.3281,121.8906 L3487.3281,120.4688 C3487.3281,120.0313 3487.3125,119.9063 3487.2188,119.75 C3487.0625,119.4844 3486.7813,119.3438 3486.4844,119.3438 C3486.1875,119.3438 3485.9844,119.4375 3485.7656,119.75 L3485.5938,119.6719 Z " fill="#000000"/><text fill="#000000" font-family="sans-serif" font-size="14" lengthAdjust="spacing" textLength="113" x="3503.75" y="128.8467">ErrorViewModel</text><line style="stroke:#181818;stroke-width:0.5;" x1="3426" x2="3662" y1="140" y2="140"/><ellipse cx="3436" cy="153.6484" fill="none" rx="3" ry="3" style="stroke:#038048;stroke-width:1.0;"/><text fill="#000000" font-family="sans-serif" font-size="14" lengthAdjust="spacing" textLength="212" x="3445" y="156.9951">string RequestID { get; set; }</text><line style="stroke:#181818;stroke-width:0.5;" x1="3426" x2="3662" y1="164.2969" y2="164.2969"/><ellipse cx="3436" cy="177.9453" fill="#84BE84" rx="3" ry="3" style="stroke:#038048;stroke-width:1.0;"/><text fill="#000000" font-family="sans-serif" font-size="14" lengthAdjust="spacing" textLength="158" x="3445" y="181.292">bool ShowRequestID()</text></g><!--MD5=[01cd50c6db373ec1739a933a6d81a78a]
class Codecool.CodecoolShop.Modal.Product--><g id="elem_Codecool.CodecoolShop.Modal.Product"><rect codeLine="43" fill="#F1F1F1" height="129.4844" id="Codecool.CodecoolShop.Modal.Product" rx="2.5" ry="2.5" style="stroke:#181818;stroke-width:0.5;" width="466" x="3300" y="296.5"/><ellipse cx="3500.75" cy="312.5" fill="#ADD1B2" rx="11" ry="11" style="stroke:#181818;stroke-width:1.0;"/><path d="M3503.0938,308.1719 C3502.1563,307.7344 3501.5625,307.5938 3500.6875,307.5938 C3498.0625,307.5938 3496.0625,309.6719 3496.0625,312.3906 L3496.0625,313.5156 C3496.0625,316.0938 3498.1719,317.9844 3501.0625,317.9844 C3502.2813,317.9844 3503.4375,317.6875 3504.1875,317.1406 C3504.7656,316.7344 3505.0938,316.2813 3505.0938,315.8906 C3505.0938,315.4375 3504.7031,315.0469 3504.2344,315.0469 C3504.0156,315.0469 3503.8125,315.125 3503.625,315.3125 C3503.1719,315.7969 3503.1719,315.7969 3502.9844,315.8906 C3502.5625,316.1563 3501.875,316.2813 3501.1094,316.2813 C3499.0625,316.2813 3497.7656,315.1875 3497.7656,313.4844 L3497.7656,312.3906 C3497.7656,310.6094 3499.0156,309.2969 3500.75,309.2969 C3501.3281,309.2969 3501.9375,309.4531 3502.4063,309.7031 C3502.8906,309.9844 3503.0625,310.2031 3503.1563,310.6094 C3503.2188,311.0156 3503.25,311.1406 3503.3906,311.2656 C3503.5313,311.4063 3503.7656,311.5156 3503.9844,311.5156 C3504.25,311.5156 3504.5156,311.375 3504.6875,311.1563 C3504.7969,311 3504.8281,310.8125 3504.8281,310.3906 L3504.8281,308.9688 C3504.8281,308.5313 3504.8125,308.4063 3504.7188,308.25 C3504.5625,307.9844 3504.2813,307.8438 3503.9844,307.8438 C3503.6875,307.8438 3503.4844,307.9375 3503.2656,308.25 L3503.0938,308.1719 Z " fill="#000000"/><text fill="#000000" font-family="sans-serif" font-size="14" lengthAdjust="spacing" textLength="56" x="3521.25" y="317.3467">Product</text><line style="stroke:#181818;stroke-width:0.5;" x1="3301" x2="3765" y1="328.5" y2="328.5"/><ellipse cx="3311" cy="342.1484" fill="none" rx="3" ry="3" style="stroke:#038048;stroke-width:1.0;"/><text fill="#000000" font-family="sans-serif" font-size="14" lengthAdjust="spacing" textLength="202" x="3320" y="345.4951">string Currency { get; set; }</text><ellipse cx="3311" cy="358.4453" fill="none" rx="3" ry="3" style="stroke:#038048;stroke-width:1.0;"/><text fill="#000000" font-family="sans-serif" font-size="14" lengthAdjust="spacing" textLength="241" x="3320" y="361.792">decimal DefaultPrice { get; set; }</text><ellipse cx="3311" cy="374.7422" fill="none" rx="3" ry="3" style="stroke:#038048;stroke-width:1.0;"/><text fill="#000000" font-family="sans-serif" font-size="14" lengthAdjust="spacing" textLength="340" x="3320" y="378.0889">ProductCategory ProductCategory { get; set; }</text><ellipse cx="3311" cy="391.0391" fill="none" rx="3" ry="3" style="stroke:#038048;stroke-width:1.0;"/><text fill="#000000" font-family="sans-serif" font-size="14" lengthAdjust="spacing" textLength="216" x="3320" y="394.3857">Supplier Supplier { get; set; }</text><line style="stroke:#181818;stroke-width:0.5;" x1="3301" x2="3765" y1="401.6875" y2="401.6875"/><ellipse cx="3311" cy="415.3359" fill="#84BE84" rx="3" ry="3" style="stroke:#038048;stroke-width:1.0;"/><text fill="#000000" font-family="sans-serif" font-size="14" lengthAdjust="spacing" textLength="440" x="3320" y="418.6826">void SetProductCategory(ProductCategory productCategory)</text></g><!--MD5=[d6b88d4b1d661adefbf20c5207c008a3]
class Codecool.CodecoolShop.Modal.ProductCategory--><g id="elem_Codecool.CodecoolShop.Modal.ProductCategory"><rect codeLine="55" fill="#F1F1F1" height="80.5938" id="Codecool.CodecoolShop.Modal.ProductCategory" rx="2.5" ry="2.5" style="stroke:#181818;stroke-width:0.5;" width="289" x="3801.5" y="320.5"/><ellipse cx="3880.75" cy="336.5" fill="#ADD1B2" rx="11" ry="11" style="stroke:#181818;stroke-width:1.0;"/><path d="M3883.0938,332.1719 C3882.1563,331.7344 3881.5625,331.5938 3880.6875,331.5938 C3878.0625,331.5938 3876.0625,333.6719 3876.0625,336.3906 L3876.0625,337.5156 C3876.0625,340.0938 3878.1719,341.9844 3881.0625,341.9844 C3882.2813,341.9844 3883.4375,341.6875 3884.1875,341.1406 C3884.7656,340.7344 3885.0938,340.2813 3885.0938,339.8906 C3885.0938,339.4375 3884.7031,339.0469 3884.2344,339.0469 C3884.0156,339.0469 3883.8125,339.125 3883.625,339.3125 C3883.1719,339.7969 3883.1719,339.7969 3882.9844,339.8906 C3882.5625,340.1563 3881.875,340.2813 3881.1094,340.2813 C3879.0625,340.2813 3877.7656,339.1875 3877.7656,337.4844 L3877.7656,336.3906 C3877.7656,334.6094 3879.0156,333.2969 3880.75,333.2969 C3881.3281,333.2969 3881.9375,333.4531 3882.4063,333.7031 C3882.8906,333.9844 3883.0625,334.2031 3883.1563,334.6094 C3883.2188,335.0156 3883.25,335.1406 3883.3906,335.2656 C3883.5313,335.4063 3883.7656,335.5156 3883.9844,335.5156 C3884.25,335.5156 3884.5156,335.375 3884.6875,335.1563 C3884.7969,335 3884.8281,334.8125 3884.8281,334.3906 L3884.8281,332.9688 C3884.8281,332.5313 3884.8125,332.4063 3884.7188,332.25 C3884.5625,331.9844 3884.2813,331.8438 3883.9844,331.8438 C3883.6875,331.8438 3883.4844,331.9375 3883.2656,332.25 L3883.0938,332.1719 Z " fill="#000000"/><text fill="#000000" font-family="sans-serif" font-size="14" lengthAdjust="spacing" textLength="122" x="3901.25" y="341.3467">ProductCategory</text><line style="stroke:#181818;stroke-width:0.5;" x1="3802.5" x2="4089.5" y1="352.5" y2="352.5"/><ellipse cx="3812.5" cy="366.1484" fill="none" rx="3" ry="3" style="stroke:#038048;stroke-width:1.0;"/><text fill="#000000" font-family="sans-serif" font-size="14" lengthAdjust="spacing" textLength="263" x="3821.5" y="369.4951">List&lt;Product&gt; Products { get; set; }</text><ellipse cx="3812.5" cy="382.4453" fill="none" rx="3" ry="3" style="stroke:#038048;stroke-width:1.0;"/><text fill="#000000" font-family="sans-serif" font-size="14" lengthAdjust="spacing" textLength="228" x="3821.5" y="385.792">string Department { get; set; }</text><line style="stroke:#181818;stroke-width:0.5;" x1="3802.5" x2="4089.5" y1="393.0938" y2="393.0938"/></g><!--MD5=[02be028a8a259adc30a56bb0de835834]
class Codecool.CodecoolShop.Modal.Supplier--><g id="elem_Codecool.CodecoolShop.Modal.Supplier"><rect codeLine="63" fill="#F1F1F1" height="80.5938" id="Codecool.CodecoolShop.Modal.Supplier" rx="2.5" ry="2.5" style="stroke:#181818;stroke-width:0.5;" width="289" x="4125.5" y="320.5"/><ellipse cx="4235.75" cy="336.5" fill="#ADD1B2" rx="11" ry="11" style="stroke:#181818;stroke-width:1.0;"/><path d="M4238.0938,332.1719 C4237.1563,331.7344 4236.5625,331.5938 4235.6875,331.5938 C4233.0625,331.5938 4231.0625,333.6719 4231.0625,336.3906 L4231.0625,337.5156 C4231.0625,340.0938 4233.1719,341.9844 4236.0625,341.9844 C4237.2813,341.9844 4238.4375,341.6875 4239.1875,341.1406 C4239.7656,340.7344 4240.0938,340.2813 4240.0938,339.8906 C4240.0938,339.4375 4239.7031,339.0469 4239.2344,339.0469 C4239.0156,339.0469 4238.8125,339.125 4238.625,339.3125 C4238.1719,339.7969 4238.1719,339.7969 4237.9844,339.8906 C4237.5625,340.1563 4236.875,340.2813 4236.1094,340.2813 C4234.0625,340.2813 4232.7656,339.1875 4232.7656,337.4844 L4232.7656,336.3906 C4232.7656,334.6094 4234.0156,333.2969 4235.75,333.2969 C4236.3281,333.2969 4236.9375,333.4531 4237.4063,333.7031 C4237.8906,333.9844 4238.0625,334.2031 4238.1563,334.6094 C4238.2188,335.0156 4238.25,335.1406 4238.3906,335.2656 C4238.5313,335.4063 4238.7656,335.5156 4238.9844,335.5156 C4239.25,335.5156 4239.5156,335.375 4239.6875,335.1563 C4239.7969,335 4239.8281,334.8125 4239.8281,334.3906 L4239.8281,332.9688 C4239.8281,332.5313 4239.8125,332.4063 4239.7188,332.25 C4239.5625,331.9844 4239.2813,331.8438 4238.9844,331.8438 C4238.6875,331.8438 4238.4844,331.9375 4238.2656,332.25 L4238.0938,332.1719 Z " fill="#000000"/><text fill="#000000" font-family="sans-serif" font-size="14" lengthAdjust="spacing" textLength="60" x="4256.25" y="341.3467">Supplier</text><line style="stroke:#181818;stroke-width:0.5;" x1="4126.5" x2="4413.5" y1="352.5" y2="352.5"/><ellipse cx="4136.5" cy="366.1484" fill="none" rx="3" ry="3" style="stroke:#038048;stroke-width:1.0;"/><text fill="#000000" font-family="sans-serif" font-size="14" lengthAdjust="spacing" textLength="263" x="4145.5" y="369.4951">List&lt;Product&gt; Products { get; set; }</text><line style="stroke:#181818;stroke-width:0.5;" x1="4126.5" x2="4413.5" y1="376.7969" y2="376.7969"/><ellipse cx="4136.5" cy="390.4453" fill="#84BE84" rx="3" ry="3" style="stroke:#038048;stroke-width:1.0;"/><text fill="#000000" font-family="sans-serif" font-size="14" lengthAdjust="spacing" textLength="136" x="4145.5" y="393.792">override ToString()</text></g><!--MD5=[d94663d8f88e31301325db8160a17700]
class Codecool.CodecoolShop.Daos.IDao--><g id="elem_Codecool.CodecoolShop.Daos.IDao"><rect codeLine="125" fill="#F1F1F1" height="113.1875" id="Codecool.CodecoolShop.Daos.IDao" rx="2.5" ry="2.5" style="stroke:#181818;stroke-width:0.5;" width="206" x="2509" y="92"/><ellipse cx="2585.75" cy="108" fill="#B4A7E5" rx="11" ry="11" style="stroke:#181818;stroke-width:1.0;"/><path d="M2586.7031,104.7813 L2588.4219,104.7813 C2588.8125,104.7813 2589,104.75 2589.125,104.6719 C2589.3906,104.5156 2589.5313,104.2344 2589.5313,103.9375 C2589.5313,103.6719 2589.4219,103.4063 2589.1875,103.2344 C2589.0156,103.125 2588.875,103.0938 2588.4219,103.0938 L2583.2813,103.0938 C2582.8438,103.0938 2582.7188,103.1094 2582.5625,103.2031 C2582.3125,103.3594 2582.1563,103.6563 2582.1563,103.9375 C2582.1563,104.2188 2582.2969,104.4688 2582.5156,104.6406 C2582.6719,104.75 2582.8594,104.7813 2583.2813,104.7813 L2585,104.7813 L2585,111.2969 L2583.2813,111.2969 C2582.8438,111.2969 2582.7188,111.3125 2582.5625,111.4219 C2582.3125,111.5781 2582.1563,111.8594 2582.1563,112.1563 C2582.1563,112.4063 2582.2969,112.6719 2582.5156,112.8281 C2582.6719,112.9531 2582.875,113 2583.2813,113 L2588.4219,113 C2589.1719,113 2589.5313,112.7188 2589.5313,112.1563 C2589.5313,111.875 2589.4219,111.625 2589.1875,111.4531 C2589.0156,111.3281 2588.875,111.2969 2588.4219,111.2969 L2586.7031,111.2969 L2586.7031,104.7813 Z " fill="#000000"/><text fill="#000000" font-family="sans-serif" font-size="14" font-style="italic" lengthAdjust="spacing" textLength="33" x="2606.25" y="112.8467">IDao</text><rect fill="#FFFFFF" height="15.9688" style="stroke:#181818;stroke-width:1.0;stroke-dasharray:2.0,2.0;" width="9" x="2709" y="89"/><text fill="#000000" font-family="sans-serif" font-size="12" font-style="italic" lengthAdjust="spacing" textLength="7" x="2710" y="101.1387">T</text><line style="stroke:#181818;stroke-width:0.5;" x1="2510" x2="2714" y1="124" y2="124"/><line style="stroke:#181818;stroke-width:0.5;" x1="2510" x2="2714" y1="132" y2="132"/><ellipse cx="2520" cy="145.6484" fill="#84BE84" rx="3" ry="3" style="stroke:#038048;stroke-width:1.0;"/><text fill="#000000" font-family="sans-serif" font-size="14" lengthAdjust="spacing" textLength="119" x="2529" y="148.9951">void Add(T item)</text><ellipse cx="2520" cy="161.9453" fill="#84BE84" rx="3" ry="3" style="stroke:#038048;stroke-width:1.0;"/><text fill="#000000" font-family="sans-serif" font-size="14" lengthAdjust="spacing" textLength="140" x="2529" y="165.292">void Remove(int id)</text><ellipse cx="2520" cy="178.2422" fill="#84BE84" rx="3" ry="3" style="stroke:#038048;stroke-width:1.0;"/><text fill="#000000" font-family="sans-serif" font-size="14" lengthAdjust="spacing" textLength="87" x="2529" y="181.5889">T Get(int id)</text><ellipse cx="2520" cy="194.5391" fill="#84BE84" rx="3" ry="3" style="stroke:#038048;stroke-width:1.0;"/><text fill="#000000" font-family="sans-serif" font-size="14" lengthAdjust="spacing" textLength="180" x="2529" y="197.8857">IEnumerable&lt;T&gt; GetAll()</text></g><!--MD5=[0d2aaf4faa473796827b97a6624aa026]
class Codecool.CodecoolShop.Daos.IProductCategoryDao--><g id="elem_Codecool.CodecoolShop.Daos.IProductCategoryDao"><rect codeLine="135" fill="#F1F1F1" height="48" id="Codecool.CodecoolShop.Daos.IProductCategoryDao" rx="2.5" ry="2.5" style="stroke:#181818;stroke-width:0.5;" width="184" x="2117" y="337"/><ellipse cx="2132" cy="353" fill="#B4A7E5" rx="11" ry="11" style="stroke:#181818;stroke-width:1.0;"/><path d="M2132.9531,349.7813 L2134.6719,349.7813 C2135.0625,349.7813 2135.25,349.75 2135.375,349.6719 C2135.6406,349.5156 2135.7813,349.2344 2135.7813,348.9375 C2135.7813,348.6719 2135.6719,348.4063 2135.4375,348.2344 C2135.2656,348.125 2135.125,348.0938 2134.6719,348.0938 L2129.5313,348.0938 C2129.0938,348.0938 2128.9688,348.1094 2128.8125,348.2031 C2128.5625,348.3594 2128.4063,348.6563 2128.4063,348.9375 C2128.4063,349.2188 2128.5469,349.4688 2128.7656,349.6406 C2128.9219,349.75 2129.1094,349.7813 2129.5313,349.7813 L2131.25,349.7813 L2131.25,356.2969 L2129.5313,356.2969 C2129.0938,356.2969 2128.9688,356.3125 2128.8125,356.4219 C2128.5625,356.5781 2128.4063,356.8594 2128.4063,357.1563 C2128.4063,357.4063 2128.5469,357.6719 2128.7656,357.8281 C2128.9219,357.9531 2129.125,358 2129.5313,358 L2134.6719,358 C2135.4219,358 2135.7813,357.7188 2135.7813,357.1563 C2135.7813,356.875 2135.6719,356.625 2135.4375,356.4531 C2135.2656,356.3281 2135.125,356.2969 2134.6719,356.2969 L2132.9531,356.2969 L2132.9531,349.7813 Z " fill="#000000"/><text fill="#000000" font-family="sans-serif" font-size="14" font-style="italic" lengthAdjust="spacing" textLength="152" x="2146" y="357.8467">IProductCategoryDao</text><line style="stroke:#181818;stroke-width:0.5;" x1="2118" x2="2300" y1="369" y2="369"/><line style="stroke:#181818;stroke-width:0.5;" x1="2118" x2="2300" y1="377" y2="377"/></g><!--MD5=[09271a6880720639626de94a91aa9453]
class Codecool.CodecoolShop.Daos.IProductDao--><g id="elem_Codecool.CodecoolShop.Daos.IProductDao"><rect codeLine="139" fill="#F1F1F1" height="80.5938" id="Codecool.CodecoolShop.Daos.IProductDao" rx="2.5" ry="2.5" style="stroke:#181818;stroke-width:0.5;" width="502" x="2361" y="320.5"/><ellipse cx="2564.25" cy="336.5" fill="#B4A7E5" rx="11" ry="11" style="stroke:#181818;stroke-width:1.0;"/><path d="M2565.2031,333.2813 L2566.9219,333.2813 C2567.3125,333.2813 2567.5,333.25 2567.625,333.1719 C2567.8906,333.0156 2568.0313,332.7344 2568.0313,332.4375 C2568.0313,332.1719 2567.9219,331.9063 2567.6875,331.7344 C2567.5156,331.625 2567.375,331.5938 2566.9219,331.5938 L2561.7813,331.5938 C2561.3438,331.5938 2561.2188,331.6094 2561.0625,331.7031 C2560.8125,331.8594 2560.6563,332.1563 2560.6563,332.4375 C2560.6563,332.7188 2560.7969,332.9688 2561.0156,333.1406 C2561.1719,333.25 2561.3594,333.2813 2561.7813,333.2813 L2563.5,333.2813 L2563.5,339.7969 L2561.7813,339.7969 C2561.3438,339.7969 2561.2188,339.8125 2561.0625,339.9219 C2560.8125,340.0781 2560.6563,340.3594 2560.6563,340.6563 C2560.6563,340.9063 2560.7969,341.1719 2561.0156,341.3281 C2561.1719,341.4531 2561.375,341.5 2561.7813,341.5 L2566.9219,341.5 C2567.6719,341.5 2568.0313,341.2188 2568.0313,340.6563 C2568.0313,340.375 2567.9219,340.125 2567.6875,339.9531 C2567.5156,339.8281 2567.375,339.7969 2566.9219,339.7969 L2565.2031,339.7969 L2565.2031,333.2813 Z " fill="#000000"/><text fill="#000000" font-family="sans-serif" font-size="14" font-style="italic" lengthAdjust="spacing" textLength="87" x="2584.75" y="341.3467">IProductDao</text><line style="stroke:#181818;stroke-width:0.5;" x1="2362" x2="2862" y1="352.5" y2="352.5"/><line style="stroke:#181818;stroke-width:0.5;" x1="2362" x2="2862" y1="360.5" y2="360.5"/><ellipse cx="2372" cy="374.1484" fill="#84BE84" rx="3" ry="3" style="stroke:#038048;stroke-width:1.0;"/><text fill="#000000" font-family="sans-serif" font-size="14" lengthAdjust="spacing" textLength="349" x="2381" y="377.4951">IEnumerable&lt;Product&gt; GetBy(Supplier supplier)</text><ellipse cx="2372" cy="390.4453" fill="#84BE84" rx="3" ry="3" style="stroke:#038048;stroke-width:1.0;"/><text fill="#000000" font-family="sans-serif" font-size="14" lengthAdjust="spacing" textLength="476" x="2381" y="393.792">IEnumerable&lt;Product&gt; GetBy(ProductCategory productCategory)</text></g><!--MD5=[e0788b5f11de16a3f567bb45541286bd]
class Codecool.CodecoolShop.Daos.ISupplierDao--><g id="elem_Codecool.CodecoolShop.Daos.ISupplierDao"><rect codeLine="147" fill="#F1F1F1" height="48" id="Codecool.CodecoolShop.Daos.ISupplierDao" rx="2.5" ry="2.5" style="stroke:#181818;stroke-width:0.5;" width="124" x="2947" y="337"/><ellipse cx="2962" cy="353" fill="#B4A7E5" rx="11" ry="11" style="stroke:#181818;stroke-width:1.0;"/><path d="M2962.9531,349.7813 L2964.6719,349.7813 C2965.0625,349.7813 2965.25,349.75 2965.375,349.6719 C2965.6406,349.5156 2965.7813,349.2344 2965.7813,348.9375 C2965.7813,348.6719 2965.6719,348.4063 2965.4375,348.2344 C2965.2656,348.125 2965.125,348.0938 2964.6719,348.0938 L2959.5313,348.0938 C2959.0938,348.0938 2958.9688,348.1094 2958.8125,348.2031 C2958.5625,348.3594 2958.4063,348.6563 2958.4063,348.9375 C2958.4063,349.2188 2958.5469,349.4688 2958.7656,349.6406 C2958.9219,349.75 2959.1094,349.7813 2959.5313,349.7813 L2961.25,349.7813 L2961.25,356.2969 L2959.5313,356.2969 C2959.0938,356.2969 2958.9688,356.3125 2958.8125,356.4219 C2958.5625,356.5781 2958.4063,356.8594 2958.4063,357.1563 C2958.4063,357.4063 2958.5469,357.6719 2958.7656,357.8281 C2958.9219,357.9531 2959.125,358 2959.5313,358 L2964.6719,358 C2965.4219,358 2965.7813,357.7188 2965.7813,357.1563 C2965.7813,356.875 2965.6719,356.625 2965.4375,356.4531 C2965.2656,356.3281 2965.125,356.2969 2964.6719,356.2969 L2962.9531,356.2969 L2962.9531,349.7813 Z " fill="#000000"/><text fill="#000000" font-family="sans-serif" font-size="14" font-style="italic" lengthAdjust="spacing" textLength="92" x="2976" y="357.8467">ISupplierDao</text><line style="stroke:#181818;stroke-width:0.5;" x1="2948" x2="3070" y1="369" y2="369"/><line style="stroke:#181818;stroke-width:0.5;" x1="2948" x2="3070" y1="377" y2="377"/></g><!--MD5=[66712588c1ec24f5cce1ffe3cfae111d]
class Codecool.CodecoolShop.Daos.Implementations.ProductCategoryDaoMemory--><g id="elem_Codecool.CodecoolShop.Daos.Implementations.ProductCategoryDaoMemory"><rect codeLine="76" fill="#F1F1F1" height="178.375" id="Codecool.CodecoolShop.Daos.Implementations.ProductCategoryDaoMemory" rx="2.5" ry="2.5" style="stroke:#181818;stroke-width:0.5;" width="383" x="1942.5" y="571.5"/><ellipse cx="2025.75" cy="587.5" fill="#ADD1B2" rx="11" ry="11" style="stroke:#181818;stroke-width:1.0;"/><path d="M2028.0938,583.1719 C2027.1563,582.7344 2026.5625,582.5938 2025.6875,582.5938 C2023.0625,582.5938 2021.0625,584.6719 2021.0625,587.3906 L2021.0625,588.5156 C2021.0625,591.0938 2023.1719,592.9844 2026.0625,592.9844 C2027.2813,592.9844 2028.4375,592.6875 2029.1875,592.1406 C2029.7656,591.7344 2030.0938,591.2813 2030.0938,590.8906 C2030.0938,590.4375 2029.7031,590.0469 2029.2344,590.0469 C2029.0156,590.0469 2028.8125,590.125 2028.625,590.3125 C2028.1719,590.7969 2028.1719,590.7969 2027.9844,590.8906 C2027.5625,591.1563 2026.875,591.2813 2026.1094,591.2813 C2024.0625,591.2813 2022.7656,590.1875 2022.7656,588.4844 L2022.7656,587.3906 C2022.7656,585.6094 2024.0156,584.2969 2025.75,584.2969 C2026.3281,584.2969 2026.9375,584.4531 2027.4063,584.7031 C2027.8906,584.9844 2028.0625,585.2031 2028.1563,585.6094 C2028.2188,586.0156 2028.25,586.1406 2028.3906,586.2656 C2028.5313,586.4063 2028.7656,586.5156 2028.9844,586.5156 C2029.25,586.5156 2029.5156,586.375 2029.6875,586.1563 C2029.7969,586 2029.8281,585.8125 2029.8281,585.3906 L2029.8281,583.9688 C2029.8281,583.5313 2029.8125,583.4063 2029.7188,583.25 C2029.5625,582.9844 2029.2813,582.8438 2028.9844,582.8438 C2028.6875,582.8438 2028.4844,582.9375 2028.2656,583.25 L2028.0938,583.1719 Z " fill="#000000"/><text fill="#000000" font-family="sans-serif" font-size="14" lengthAdjust="spacing" textLength="208" x="2046.25" y="592.3467">ProductCategoryDaoMemory</text><line style="stroke:#181818;stroke-width:0.5;" x1="1943.5" x2="2324.5" y1="603.5" y2="603.5"/><rect fill="none" height="6" style="stroke:#C82930;stroke-width:1.0;" width="6" x="1950.5" y="614.1484"/><text fill="#000000" font-family="sans-serif" font-size="14" lengthAdjust="spacing" textLength="208" x="1962.5" y="620.4951">List&lt;ProductCategory&gt; Data</text><rect fill="none" height="6" style="stroke:#C82930;stroke-width:1.0;" width="6" x="1950.5" y="630.4453"/><text fill="#000000" font-family="sans-serif" font-size="14" lengthAdjust="spacing" textLength="318" x="1962.5" y="636.792">static ProductCategoryDaoMemory Instance</text><line style="stroke:#181818;stroke-width:0.5;" x1="1943.5" x2="2324.5" y1="644.0938" y2="644.0938"/><rect fill="#F24D5C" height="6" style="stroke:#C82930;stroke-width:1.0;" width="6" x="1950.5" y="654.7422"/><text fill="#000000" font-family="sans-serif" font-size="14" lengthAdjust="spacing" textLength="218" x="1962.5" y="661.0889">ProductCategoryDaoMemory()</text><ellipse cx="1953.5" cy="674.0391" fill="#84BE84" rx="3" ry="3" style="stroke:#038048;stroke-width:1.0;"/><text fill="#000000" font-family="sans-serif" font-size="14" lengthAdjust="spacing" textLength="357" x="1962.5" y="677.3857">static ProductCategoryDaomemory GetInstance()</text><ellipse cx="1953.5" cy="690.3359" fill="#84BE84" rx="3" ry="3" style="stroke:#038048;stroke-width:1.0;"/><text fill="#000000" font-family="sans-serif" font-size="14" lengthAdjust="spacing" textLength="232" x="1962.5" y="693.6826">void Add(ProductCategory Item)</text><ellipse cx="1953.5" cy="706.6328" fill="#84BE84" rx="3" ry="3" style="stroke:#038048;stroke-width:1.0;"/><text fill="#000000" font-family="sans-serif" font-size="14" lengthAdjust="spacing" textLength="140" x="1962.5" y="709.9795">void Remove(int id)</text><ellipse cx="1953.5" cy="722.9297" fill="#84BE84" rx="3" ry="3" style="stroke:#038048;stroke-width:1.0;"/><text fill="#000000" font-family="sans-serif" font-size="14" lengthAdjust="spacing" textLength="200" x="1962.5" y="726.2764">ProductCategory Get(int id)</text><ellipse cx="1953.5" cy="739.2266" fill="#84BE84" rx="3" ry="3" style="stroke:#038048;stroke-width:1.0;"/><text fill="#000000" font-family="sans-serif" font-size="14" lengthAdjust="spacing" textLength="293" x="1962.5" y="742.5732">IEnumerable&lt;ProductCategory&gt; GetAll()</text></g><!--MD5=[c2035f46b7b3c822fb9290a87f156ce1]
class Codecool.CodecoolShop.Daos.Implementations.ProductDaoMemory--><g id="elem_Codecool.CodecoolShop.Daos.Implementations.ProductDaoMemory"><rect codeLine="91" fill="#F1F1F1" height="210.9688" id="Codecool.CodecoolShop.Daos.Implementations.ProductDaoMemory" rx="2.5" ry="2.5" style="stroke:#181818;stroke-width:0.5;" width="502" x="2361" y="555"/><ellipse cx="2536.75" cy="571" fill="#ADD1B2" rx="11" ry="11" style="stroke:#181818;stroke-width:1.0;"/><path d="M2539.0938,566.6719 C2538.1563,566.2344 2537.5625,566.0938 2536.6875,566.0938 C2534.0625,566.0938 2532.0625,568.1719 2532.0625,570.8906 L2532.0625,572.0156 C2532.0625,574.5938 2534.1719,576.4844 2537.0625,576.4844 C2538.2813,576.4844 2539.4375,576.1875 2540.1875,575.6406 C2540.7656,575.2344 2541.0938,574.7813 2541.0938,574.3906 C2541.0938,573.9375 2540.7031,573.5469 2540.2344,573.5469 C2540.0156,573.5469 2539.8125,573.625 2539.625,573.8125 C2539.1719,574.2969 2539.1719,574.2969 2538.9844,574.3906 C2538.5625,574.6563 2537.875,574.7813 2537.1094,574.7813 C2535.0625,574.7813 2533.7656,573.6875 2533.7656,571.9844 L2533.7656,570.8906 C2533.7656,569.1094 2535.0156,567.7969 2536.75,567.7969 C2537.3281,567.7969 2537.9375,567.9531 2538.4063,568.2031 C2538.8906,568.4844 2539.0625,568.7031 2539.1563,569.1094 C2539.2188,569.5156 2539.25,569.6406 2539.3906,569.7656 C2539.5313,569.9063 2539.7656,570.0156 2539.9844,570.0156 C2540.25,570.0156 2540.5156,569.875 2540.6875,569.6563 C2540.7969,569.5 2540.8281,569.3125 2540.8281,568.8906 L2540.8281,567.4688 C2540.8281,567.0313 2540.8125,566.9063 2540.7188,566.75 C2540.5625,566.4844 2540.2813,566.3438 2539.9844,566.3438 C2539.6875,566.3438 2539.4844,566.4375 2539.2656,566.75 L2539.0938,566.6719 Z " fill="#000000"/><text fill="#000000" font-family="sans-serif" font-size="14" lengthAdjust="spacing" textLength="142" x="2557.25" y="575.8467">ProductDaoMemory</text><line style="stroke:#181818;stroke-width:0.5;" x1="2362" x2="2862" y1="587" y2="587"/><rect fill="none" height="6" style="stroke:#C82930;stroke-width:1.0;" width="6" x="2369" y="597.6484"/><text fill="#000000" font-family="sans-serif" font-size="14" lengthAdjust="spacing" textLength="142" x="2381" y="603.9951">List&lt;Product&gt; Data</text><rect fill="none" height="6" style="stroke:#C82930;stroke-width:1.0;" width="6" x="2369" y="613.9453"/><text fill="#000000" font-family="sans-serif" font-size="14" lengthAdjust="spacing" textLength="252" x="2381" y="620.292">static ProductDaoMemory Instance</text><line style="stroke:#181818;stroke-width:0.5;" x1="2362" x2="2862" y1="627.5938" y2="627.5938"/><rect fill="#F24D5C" height="6" style="stroke:#C82930;stroke-width:1.0;" width="6" x="2369" y="638.2422"/><text fill="#000000" font-family="sans-serif" font-size="14" lengthAdjust="spacing" textLength="152" x="2381" y="644.5889">ProductDaoMemory()</text><ellipse cx="2372" cy="657.5391" fill="#84BE84" rx="3" ry="3" style="stroke:#038048;stroke-width:1.0;"/><text fill="#000000" font-family="sans-serif" font-size="14" lengthAdjust="spacing" textLength="291" x="2381" y="660.8857">static ProductDaomemory GetInstance()</text><ellipse cx="2372" cy="673.8359" fill="#84BE84" rx="3" ry="3" style="stroke:#038048;stroke-width:1.0;"/><text fill="#000000" font-family="sans-serif" font-size="14" lengthAdjust="spacing" textLength="166" x="2381" y="677.1826">void Add(Product Item)</text><ellipse cx="2372" cy="690.1328" fill="#84BE84" rx="3" ry="3" style="stroke:#038048;stroke-width:1.0;"/><text fill="#000000" font-family="sans-serif" font-size="14" lengthAdjust="spacing" textLength="140" x="2381" y="693.4795">void Remove(int id)</text><ellipse cx="2372" cy="706.4297" fill="#84BE84" rx="3" ry="3" style="stroke:#038048;stroke-width:1.0;"/><text fill="#000000" font-family="sans-serif" font-size="14" lengthAdjust="spacing" textLength="134" x="2381" y="709.7764">Product Get(int id)</text><ellipse cx="2372" cy="722.7266" fill="#84BE84" rx="3" ry="3" style="stroke:#038048;stroke-width:1.0;"/><text fill="#000000" font-family="sans-serif" font-size="14" lengthAdjust="spacing" textLength="227" x="2381" y="726.0732">IEnumerable&lt;Product&gt; GetAll()</text><ellipse cx="2372" cy="739.0234" fill="#84BE84" rx="3" ry="3" style="stroke:#038048;stroke-width:1.0;"/><text fill="#000000" font-family="sans-serif" font-size="14" lengthAdjust="spacing" textLength="349" x="2381" y="742.3701">IEnumerable&lt;Product&gt; GetBy(Supplier supplier)</text><ellipse cx="2372" cy="755.3203" fill="#84BE84" rx="3" ry="3" style="stroke:#038048;stroke-width:1.0;"/><text fill="#000000" font-family="sans-serif" font-size="14" lengthAdjust="spacing" textLength="476" x="2381" y="758.667">IEnumerable&lt;Product&gt; GetBy(ProductCategory productCategory)</text></g><!--MD5=[a8f438a9197207a5d3602847fcaeb8fa]
class Codecool.CodecoolShop.Daos.Implementations.SupplierDaoMemory--><g id="elem_Codecool.CodecoolShop.Daos.Implementations.SupplierDaoMemory"><rect codeLine="108" fill="#F1F1F1" height="178.375" id="Codecool.CodecoolShop.Daos.Implementations.SupplierDaoMemory" rx="2.5" ry="2.5" style="stroke:#181818;stroke-width:0.5;" width="321" x="2898.5" y="571.5"/><ellipse cx="2981.75" cy="587.5" fill="#ADD1B2" rx="11" ry="11" style="stroke:#181818;stroke-width:1.0;"/><path d="M2984.0938,583.1719 C2983.1563,582.7344 2982.5625,582.5938 2981.6875,582.5938 C2979.0625,582.5938 2977.0625,584.6719 2977.0625,587.3906 L2977.0625,588.5156 C2977.0625,591.0938 2979.1719,592.9844 2982.0625,592.9844 C2983.2813,592.9844 2984.4375,592.6875 2985.1875,592.1406 C2985.7656,591.7344 2986.0938,591.2813 2986.0938,590.8906 C2986.0938,590.4375 2985.7031,590.0469 2985.2344,590.0469 C2985.0156,590.0469 2984.8125,590.125 2984.625,590.3125 C2984.1719,590.7969 2984.1719,590.7969 2983.9844,590.8906 C2983.5625,591.1563 2982.875,591.2813 2982.1094,591.2813 C2980.0625,591.2813 2978.7656,590.1875 2978.7656,588.4844 L2978.7656,587.3906 C2978.7656,585.6094 2980.0156,584.2969 2981.75,584.2969 C2982.3281,584.2969 2982.9375,584.4531 2983.4063,584.7031 C2983.8906,584.9844 2984.0625,585.2031 2984.1563,585.6094 C2984.2188,586.0156 2984.25,586.1406 2984.3906,586.2656 C2984.5313,586.4063 2984.7656,586.5156 2984.9844,586.5156 C2985.25,586.5156 2985.5156,586.375 2985.6875,586.1563 C2985.7969,586 2985.8281,585.8125 2985.8281,585.3906 L2985.8281,583.9688 C2985.8281,583.5313 2985.8125,583.4063 2985.7188,583.25 C2985.5625,582.9844 2985.2813,582.8438 2984.9844,582.8438 C2984.6875,582.8438 2984.4844,582.9375 2984.2656,583.25 L2984.0938,583.1719 Z " fill="#000000"/><text fill="#000000" font-family="sans-serif" font-size="14" lengthAdjust="spacing" textLength="146" x="3002.25" y="592.3467">SupplierDaoMemory</text><line style="stroke:#181818;stroke-width:0.5;" x1="2899.5" x2="3218.5" y1="603.5" y2="603.5"/><rect fill="none" height="6" style="stroke:#C82930;stroke-width:1.0;" width="6" x="2906.5" y="614.1484"/><text fill="#000000" font-family="sans-serif" font-size="14" lengthAdjust="spacing" textLength="146" x="2918.5" y="620.4951">List&lt;Supplier&gt; Data</text><rect fill="none" height="6" style="stroke:#C82930;stroke-width:1.0;" width="6" x="2906.5" y="630.4453"/><text fill="#000000" font-family="sans-serif" font-size="14" lengthAdjust="spacing" textLength="256" x="2918.5" y="636.792">static SupplierDaoMemory Instance</text><line style="stroke:#181818;stroke-width:0.5;" x1="2899.5" x2="3218.5" y1="644.0938" y2="644.0938"/><rect fill="#F24D5C" height="6" style="stroke:#C82930;stroke-width:1.0;" width="6" x="2906.5" y="654.7422"/><text fill="#000000" font-family="sans-serif" font-size="14" lengthAdjust="spacing" textLength="156" x="2918.5" y="661.0889">SupplierDaoMemory()</text><ellipse cx="2909.5" cy="674.0391" fill="#84BE84" rx="3" ry="3" style="stroke:#038048;stroke-width:1.0;"/><text fill="#000000" font-family="sans-serif" font-size="14" lengthAdjust="spacing" textLength="295" x="2918.5" y="677.3857">static SupplierDaomemory GetInstance()</text><ellipse cx="2909.5" cy="690.3359" fill="#84BE84" rx="3" ry="3" style="stroke:#038048;stroke-width:1.0;"/><text fill="#000000" font-family="sans-serif" font-size="14" lengthAdjust="spacing" textLength="194" x="2918.5" y="693.6826">void Add(Supplier supplier)</text><ellipse cx="2909.5" cy="706.6328" fill="#84BE84" rx="3" ry="3" style="stroke:#038048;stroke-width:1.0;"/><text fill="#000000" font-family="sans-serif" font-size="14" lengthAdjust="spacing" textLength="140" x="2918.5" y="709.9795">void Remove(int id)</text><ellipse cx="2909.5" cy="722.9297" fill="#84BE84" rx="3" ry="3" style="stroke:#038048;stroke-width:1.0;"/><text fill="#000000" font-family="sans-serif" font-size="14" lengthAdjust="spacing" textLength="138" x="2918.5" y="726.2764">Supplier Get(int id)</text><ellipse cx="2909.5" cy="739.2266" fill="#84BE84" rx="3" ry="3" style="stroke:#038048;stroke-width:1.0;"/><text fill="#000000" font-family="sans-serif" font-size="14" lengthAdjust="spacing" textLength="231" x="2918.5" y="742.5732">IEnumerable&lt;Supplier&gt; GetAll()</text></g><!--MD5=[be3dcc069176d98ff0e9f6fa7712190d]
class Codecool.CodecoolShop.Controllers.ProductController--><g id="elem_Codecool.CodecoolShop.Controllers.ProductController"><rect codeLine="155" fill="#F1F1F1" height="145.7813" id="Codecool.CodecoolShop.Controllers.ProductController" rx="2.5" ry="2.5" style="stroke:#181818;stroke-width:0.5;" width="420" x="46" y="288"/><ellipse cx="187.25" cy="304" fill="#ADD1B2" rx="11" ry="11" style="stroke:#181818;stroke-width:1.0;"/><path d="M189.5938,299.6719 C188.6563,299.2344 188.0625,299.0938 187.1875,299.0938 C184.5625,299.0938 182.5625,301.1719 182.5625,303.8906 L182.5625,305.0156 C182.5625,307.5938 184.6719,309.4844 187.5625,309.4844 C188.7813,309.4844 189.9375,309.1875 190.6875,308.6406 C191.2656,308.2344 191.5938,307.7813 191.5938,307.3906 C191.5938,306.9375 191.2031,306.5469 190.7344,306.5469 C190.5156,306.5469 190.3125,306.625 190.125,306.8125 C189.6719,307.2969 189.6719,307.2969 189.4844,307.3906 C189.0625,307.6563 188.375,307.7813 187.6094,307.7813 C185.5625,307.7813 184.2656,306.6875 184.2656,304.9844 L184.2656,303.8906 C184.2656,302.1094 185.5156,300.7969 187.25,300.7969 C187.8281,300.7969 188.4375,300.9531 188.9063,301.2031 C189.3906,301.4844 189.5625,301.7031 189.6563,302.1094 C189.7188,302.5156 189.75,302.6406 189.8906,302.7656 C190.0313,302.9063 190.2656,303.0156 190.4844,303.0156 C190.75,303.0156 191.0156,302.875 191.1875,302.6563 C191.2969,302.5 191.3281,302.3125 191.3281,301.8906 L191.3281,300.4688 C191.3281,300.0313 191.3125,299.9063 191.2188,299.75 C191.0625,299.4844 190.7813,299.3438 190.4844,299.3438 C190.1875,299.3438 189.9844,299.4375 189.7656,299.75 L189.5938,299.6719 Z " fill="#000000"/><text fill="#000000" font-family="sans-serif" font-size="14" lengthAdjust="spacing" textLength="129" x="207.75" y="308.8467">ProductController</text><line style="stroke:#181818;stroke-width:0.5;" x1="47" x2="465" y1="320" y2="320"/><rect fill="none" height="6" style="stroke:#C82930;stroke-width:1.0;" width="6" x="54" y="330.6484"/><text fill="#000000" font-family="sans-serif" font-size="14" lengthAdjust="spacing" textLength="328" x="66" y="336.9951">readonly ILogger&lt;ProductController&gt; _logger</text><ellipse cx="57" cy="349.9453" fill="none" rx="3" ry="3" style="stroke:#038048;stroke-width:1.0;"/><text fill="#000000" font-family="sans-serif" font-size="14" lengthAdjust="spacing" textLength="314" x="66" y="353.292">ProductService ProductService { get; set; }</text><line style="stroke:#181818;stroke-width:0.5;" x1="47" x2="465" y1="360.5938" y2="360.5938"/><ellipse cx="57" cy="374.2422" fill="#84BE84" rx="3" ry="3" style="stroke:#038048;stroke-width:1.0;"/><text fill="#000000" font-family="sans-serif" font-size="14" lengthAdjust="spacing" textLength="394" x="66" y="377.5889">ProductController(ILogger&lt;ProductController&gt; logger)</text><ellipse cx="57" cy="390.5391" fill="#84BE84" rx="3" ry="3" style="stroke:#038048;stroke-width:1.0;"/><text fill="#000000" font-family="sans-serif" font-size="14" lengthAdjust="spacing" textLength="149" x="66" y="393.8857">IActionResult Index()</text><ellipse cx="57" cy="406.8359" fill="#84BE84" rx="3" ry="3" style="stroke:#038048;stroke-width:1.0;"/><text fill="#000000" font-family="sans-serif" font-size="14" lengthAdjust="spacing" textLength="161" x="66" y="410.1826">IActionResult Privacy()</text><ellipse cx="57" cy="423.1328" fill="#84BE84" rx="3" ry="3" style="stroke:#038048;stroke-width:1.0;"/><text fill="#000000" font-family="sans-serif" font-size="14" lengthAdjust="spacing" textLength="146" x="66" y="426.4795">IActionResult Error()</text></g><!--MD5=[08edf1c0d2d338a145599a69d687fdd2]
class Codecool.CodecoolShop.Service.ProductService--><g id="elem_Codecool.CodecoolShop.Service.ProductService"><rect codeLine="172" fill="#F1F1F1" height="129.4844" id="Codecool.CodecoolShop.Service.ProductService" rx="2.5" ry="2.5" style="stroke:#181818;stroke-width:0.5;" width="639" x="1222.5" y="84"/><ellipse cx="1483.25" cy="100" fill="#ADD1B2" rx="11" ry="11" style="stroke:#181818;stroke-width:1.0;"/><path d="M1485.5938,95.6719 C1484.6563,95.2344 1484.0625,95.0938 1483.1875,95.0938 C1480.5625,95.0938 1478.5625,97.1719 1478.5625,99.8906 L1478.5625,101.0156 C1478.5625,103.5938 1480.6719,105.4844 1483.5625,105.4844 C1484.7813,105.4844 1485.9375,105.1875 1486.6875,104.6406 C1487.2656,104.2344 1487.5938,103.7813 1487.5938,103.3906 C1487.5938,102.9375 1487.2031,102.5469 1486.7344,102.5469 C1486.5156,102.5469 1486.3125,102.625 1486.125,102.8125 C1485.6719,103.2969 1485.6719,103.2969 1485.4844,103.3906 C1485.0625,103.6563 1484.375,103.7813 1483.6094,103.7813 C1481.5625,103.7813 1480.2656,102.6875 1480.2656,100.9844 L1480.2656,99.8906 C1480.2656,98.1094 1481.5156,96.7969 1483.25,96.7969 C1483.8281,96.7969 1484.4375,96.9531 1484.9063,97.2031 C1485.3906,97.4844 1485.5625,97.7031 1485.6563,98.1094 C1485.7188,98.5156 1485.75,98.6406 1485.8906,98.7656 C1486.0313,98.9063 1486.2656,99.0156 1486.4844,99.0156 C1486.75,99.0156 1487.0156,98.875 1487.1875,98.6563 C1487.2969,98.5 1487.3281,98.3125 1487.3281,97.8906 L1487.3281,96.4688 C1487.3281,96.0313 1487.3125,95.9063 1487.2188,95.75 C1487.0625,95.4844 1486.7813,95.3438 1486.4844,95.3438 C1486.1875,95.3438 1485.9844,95.4375 1485.7656,95.75 L1485.5938,95.6719 Z " fill="#000000"/><text fill="#000000" font-family="sans-serif" font-size="14" lengthAdjust="spacing" textLength="109" x="1503.75" y="104.8467">ProductService</text><line style="stroke:#181818;stroke-width:0.5;" x1="1223.5" x2="1860.5" y1="116" y2="116"/><rect fill="none" height="6" style="stroke:#C82930;stroke-width:1.0;" width="6" x="1230.5" y="126.6484"/><text fill="#000000" font-family="sans-serif" font-size="14" lengthAdjust="spacing" textLength="250" x="1242.5" y="132.9951">readonly IProductDao _productDao</text><rect fill="none" height="6" style="stroke:#C82930;stroke-width:1.0;" width="6" x="1230.5" y="142.9453"/><text fill="#000000" font-family="sans-serif" font-size="14" lengthAdjust="spacing" textLength="382" x="1242.5" y="149.292">readonly IProductCategoryDao _productCategoryDao</text><line style="stroke:#181818;stroke-width:0.5;" x1="1223.5" x2="1860.5" y1="156.5938" y2="156.5938"/><ellipse cx="1233.5" cy="170.2422" fill="#84BE84" rx="3" ry="3" style="stroke:#038048;stroke-width:1.0;"/><text fill="#000000" font-family="sans-serif" font-size="14" lengthAdjust="spacing" textLength="613" x="1242.5" y="173.5889">ProductService(IProductDao productDao, IProductCategoryDao productCategoryDao)</text><ellipse cx="1233.5" cy="186.5391" fill="#84BE84" rx="3" ry="3" style="stroke:#038048;stroke-width:1.0;"/><text fill="#000000" font-family="sans-serif" font-size="14" lengthAdjust="spacing" textLength="386" x="1242.5" y="189.8857">ProductCategory GetProductCategory(int categoryId)</text><ellipse cx="1233.5" cy="202.8359" fill="#84BE84" rx="3" ry="3" style="stroke:#038048;stroke-width:1.0;"/><text fill="#000000" font-family="sans-serif" font-size="14" lengthAdjust="spacing" textLength="455" x="1242.5" y="206.1826">IEnumerable&lt;Product&gt; GetProductForCategory(int categoryId)</text></g><path d="M24.5,122 L59.5,122 A3.75,3.75 0 0 1 62,124.5 L69,144.2969 L73.5,144.2969 A2.5,2.5 0 0 1 76,146.7969 L76,172.0938 A2.5,2.5 0 0 1 73.5,174.5938 L24.5,174.5938 A2.5,2.5 0 0 1 22,172.0938 L22,124.5 A2.5,2.5 0 0 1 24.5,122 " fill="#F1F1F1" style="stroke:#181818;stroke-width:0.5;"/><line style="stroke:#181818;stroke-width:0.5;" x1="22" x2="69" y1="144.2969" y2="144.2969"/><text fill="#000000" font-family="sans-serif" font-size="14" lengthAdjust="spacing" textLength="34" x="26" y="136.9951">View</text><!--MD5=[704bb8ed0b0c47b94711100f5e8f140f]
reverse link Codecool.CodecoolShop.Modal.BaseModel to Codecool.CodecoolShop.Modal.Product--><g id="link_Codecool.CodecoolShop.Modal.BaseModel_Codecool.CodecoolShop.Modal.Product"><path codeLine="191" d="M3834.76,206.197 C3780.2,234.007 3714.27,267.61 3657.97,296.304 " fill="none" id="Codecool.CodecoolShop.Modal.BaseModel-backto-Codecool.CodecoolShop.Modal.Product" style="stroke:#181818;stroke-width:1.0;"/><polygon fill="none" points="3831.8,199.848,3852.8,197.003,3838.16,212.322,3831.8,199.848" style="stroke:#181818;stroke-width:1.0;"/></g><!--MD5=[4f7e1abe1ea28663a3e67008c0fdcb6d]
reverse link Codecool.CodecoolShop.Modal.BaseModel to Codecool.CodecoolShop.Modal.ProductCategory--><g id="link_Codecool.CodecoolShop.Modal.BaseModel_Codecool.CodecoolShop.Modal.ProductCategory"><path codeLine="192" d="M3946,217.282 C3946,251.347 3946,291.435 3946,320.437 " fill="none" id="Codecool.CodecoolShop.Modal.BaseModel-backto-Codecool.CodecoolShop.Modal.ProductCategory" style="stroke:#181818;stroke-width:1.0;"/><polygon fill="none" points="3939,217.003,3946,197.003,3953,217.003,3939,217.003" style="stroke:#181818;stroke-width:1.0;"/></g><!--MD5=[7c0cc9fe5448e84e335cb3f036aedc4b]
reverse link Codecool.CodecoolShop.Modal.BaseModel to Codecool.CodecoolShop.Modal.Supplier--><g id="link_Codecool.CodecoolShop.Modal.BaseModel_Codecool.CodecoolShop.Modal.Supplier"><path codeLine="193" d="M4047.58,207.604 C4067.79,219.66 4088.72,232.503 4108,245 C4144.9,268.916 4185.23,297.535 4216.42,320.24 " fill="none" id="Codecool.CodecoolShop.Modal.BaseModel-backto-Codecool.CodecoolShop.Modal.Supplier" style="stroke:#181818;stroke-width:1.0;"/><polygon fill="none" points="4043.72,213.451,4030.07,197.241,4050.85,201.402,4043.72,213.451" style="stroke:#181818;stroke-width:1.0;"/></g><!--MD5=[acab00187a1440ee03ab6901be7c3b2d]
reverse link Codecool.CodecoolShop.Daos.IDao to Codecool.CodecoolShop.Daos.IProductCategoryDao--><g id="link_Codecool.CodecoolShop.Daos.IDao_Codecool.CodecoolShop.Daos.IProductCategoryDao"><path codeLine="195" d="M2489.56,182.449 C2442.07,197.885 2388.32,218.74 2343,245 C2298.97,270.515 2255.7,311.294 2230.71,336.814 " fill="none" id="Codecool.CodecoolShop.Daos.IDao-backto-Codecool.CodecoolShop.Daos.IProductCategoryDao" style="stroke:#181818;stroke-width:1.0;"/><polygon fill="none" points="2487.62,175.722,2508.8,176.377,2491.83,189.073,2487.62,175.722" style="stroke:#181818;stroke-width:1.0;"/></g><!--MD5=[e29fd3c990b985e14e305d05b9e56426]
reverse link Codecool.CodecoolShop.Daos.IDao to Codecool.CodecoolShop.Daos.IProductDao--><g id="link_Codecool.CodecoolShop.Daos.IDao_Codecool.CodecoolShop.Daos.IProductDao"><path codeLine="196" d="M2612,225.499 C2612,257.649 2612,293.754 2612,320.456 " fill="none" id="Codecool.CodecoolShop.Daos.IDao-backto-Codecool.CodecoolShop.Daos.IProductDao" style="stroke:#181818;stroke-width:1.0;"/><polygon fill="none" points="2605,225.082,2612,205.082,2619,225.082,2605,225.082" style="stroke:#181818;stroke-width:1.0;"/></g><!--MD5=[cebba90712fe9807e10ab5907fc4389d]
reverse link Codecool.CodecoolShop.Daos.IDao to Codecool.CodecoolShop.Daos.ISupplierDao--><g id="link_Codecool.CodecoolShop.Daos.IDao_Codecool.CodecoolShop.Daos.ISupplierDao"><path codeLine="197" d="M2734.24,182.072 C2781.59,197.458 2835.1,218.376 2880,245 C2922.84,270.401 2964.36,311.214 2988.26,336.772 " fill="none" id="Codecool.CodecoolShop.Daos.IDao-backto-Codecool.CodecoolShop.Daos.ISupplierDao" style="stroke:#181818;stroke-width:1.0;"/><polygon fill="none" points="2732.03,188.715,2715.06,176.027,2736.24,175.362,2732.03,188.715" style="stroke:#181818;stroke-width:1.0;"/></g><!--MD5=[abe33f297a32b83c88e772b4e52a0eb0]
reverse link Codecool.CodecoolShop.Daos.IProductCategoryDao to Codecool.CodecoolShop.Daos.Implementations.ProductCategoryDaoMemory--><g id="link_Codecool.CodecoolShop.Daos.IProductCategoryDao_Codecool.CodecoolShop.Daos.Implementations.ProductCategoryDaoMemory"><path codeLine="199" d="M2198.16,404.999 C2187.24,448.327 2170.06,516.445 2156.23,571.31 " fill="none" id="Codecool.CodecoolShop.Daos.IProductCategoryDao-backto-Codecool.CodecoolShop.Daos.Implementations.ProductCategoryDaoMemory" style="stroke:#181818;stroke-width:1.0;"/><polygon fill="none" points="2191.44,403.026,2203.11,385.344,2205.01,406.449,2191.44,403.026" style="stroke:#181818;stroke-width:1.0;"/></g><!--MD5=[2e2054c2ace15472d0de54aa81135718]
reverse link Codecool.CodecoolShop.Daos.IProductDao to Codecool.CodecoolShop.Daos.Implementations.ProductDaoMemory--><g id="link_Codecool.CodecoolShop.Daos.IProductDao_Codecool.CodecoolShop.Daos.Implementations.ProductDaoMemory"><path codeLine="200" d="M2612,421.55 C2612,459.64 2612,510.105 2612,554.756 " fill="none" id="Codecool.CodecoolShop.Daos.IProductDao-backto-Codecool.CodecoolShop.Daos.Implementations.ProductDaoMemory" style="stroke:#181818;stroke-width:1.0;"/><polygon fill="none" points="2605,421.506,2612,401.506,2619,421.506,2605,421.506" style="stroke:#181818;stroke-width:1.0;"/></g><!--MD5=[0a04bbf33e0d729331dd41e2902a9236]
reverse link Codecool.CodecoolShop.Daos.ISupplierDao to Codecool.CodecoolShop.Daos.Implementations.SupplierDaoMemory--><g id="link_Codecool.CodecoolShop.Daos.ISupplierDao_Codecool.CodecoolShop.Daos.Implementations.SupplierDaoMemory"><path codeLine="201" d="M3016.28,405.296 C3023.56,448.638 3034.98,516.571 3044.18,571.31 " fill="none" id="Codecool.CodecoolShop.Daos.ISupplierDao-backto-Codecool.CodecoolShop.Daos.Implementations.SupplierDaoMemory" style="stroke:#181818;stroke-width:1.0;"/><polygon fill="none" points="3009.34,406.228,3012.92,385.344,3023.14,403.907,3009.34,406.228" style="stroke:#181818;stroke-width:1.0;"/></g><!--MD5=[6d551c6de5a7c4e81eb8b848433999af]
reverse link Codecool.CodecoolShop.Controller to Codecool.CodecoolShop.Controllers.ProductController--><g id="link_Codecool.CodecoolShop.Controller_Codecool.CodecoolShop.Controllers.ProductController"><path codeLine="202" d="M182.343,191.469 C194.382,219.014 210.44,255.756 224.49,287.903 " fill="none" id="Codecool.CodecoolShop.Controller-backto-Codecool.CodecoolShop.Controllers.ProductController" style="stroke:#181818;stroke-width:1.0;"/><polygon fill="none" points="175.793,193.961,174.197,172.831,188.621,188.354,175.793,193.961" style="stroke:#181818;stroke-width:1.0;"/></g><!--MD5=[7a7820d47d8f78e11bf124edefc7bf8b]
@startuml
namespace Codecool.CodecoolShop {

class Program
{

+ static void Main(string[] args)
+ static IHostBuilder CreateHostBuilder(string[] args)

}

class StartUp
{

+ IConfiguration Configuration { get; }

+ StartUp(IConfiguration configuration)
+ void ConfigurationServices(IServiceCollection services)
+ void Configure(IApplicationBuilder app, IWebHostEnvironment env)
+ void SetUpMemoryDatabases()

}

namespace Codecool.CodecoolShop.Modal {

abstract class BaseModel
{

+ int ID { get; set; }
+ string Name { get; set; }
+ string Description { get; set; }

}

class ErrorViewModel
{

+ string RequestID { get; set; }

+ bool ShowRequestID()

}

class Product
{

+ string Currency { get; set; }
+ decimal DefaultPrice { get; set; }
+ ProductCategory ProductCategory { get; set; }
+ Supplier Supplier { get; set; }

+ void SetProductCategory(ProductCategory productCategory)

}

class ProductCategory
{

+ List<Product> Products { get; set; }
+ string Department { get; set; }

}

class Supplier
{

+ List<Product> Products { get; set; }

+ override ToString()

}

namespace Codecool.CodecoolShop.Daos {

namespace Codecool.CodecoolShop.Daos.Implementations {

class ProductCategoryDaoMemory 
{

- List<ProductCategory> Data
- static ProductCategoryDaoMemory Instance

- ProductCategoryDaoMemory()
+ static ProductCategoryDaomemory GetInstance()
+ void Add(ProductCategory Item)
+ void Remove(int id)
+ ProductCategory Get(int id)
+ IEnumerable<ProductCategory> GetAll()

}

class ProductDaoMemory
{

- List<Product> Data
- static ProductDaoMemory Instance

- ProductDaoMemory()
+ static ProductDaomemory GetInstance()
+ void Add(Product Item)
+ void Remove(int id)
+ Product Get(int id)
+ IEnumerable<Product> GetAll()
+ IEnumerable<Product> GetBy(Supplier supplier)
+ IEnumerable<Product> GetBy(ProductCategory productCategory)

}

class SupplierDaoMemory
{

- List<Supplier> Data
- static SupplierDaoMemory Instance

- SupplierDaoMemory()
+ static SupplierDaomemory GetInstance()
+ void Add(Supplier supplier)
+ void Remove(int id)
+ Supplier Get(int id)
+ IEnumerable<Supplier> GetAll()

}

}

interface IDao<T>
{

+ void Add(T item)
+ void Remove(int id)
+ T Get(int id)
+ IEnumerable<T> GetAll()

}

interface IProductCategoryDao
{
}

interface IProductDao
{

+ IEnumerable<Product> GetBy(Supplier supplier)
+ IEnumerable<Product> GetBy(ProductCategory productCategory)

}

interface ISupplierDao
{
}

}

namespace Codecool.CodecoolShop.Controllers {

class ProductController
{

- readonly ILogger<ProductController> _logger
+ ProductService ProductService { get; set; }

+ ProductController(ILogger<ProductController> logger)
+ IActionResult Index()
+ IActionResult Privacy()
+ IActionResult Error()

}

}

namespace Codecool.CodecoolShop.Service {

class ProductService
{

- readonly IProductDao _productDao
- readonly IProductCategoryDao _productCategoryDao

+ ProductService(IProductDao productDao, IProductCategoryDao productCategoryDao)
+ ProductCategory GetProductCategory(int categoryId)
+ IEnumerable<Product> GetProductForCategory(int categoryId)

}

}

namespace Codecool.CodecoolShop.View {
}

}

Codecool.CodecoolShop.Modal.BaseModel <|- - Codecool.CodecoolShop.Modal.Product
Codecool.CodecoolShop.Modal.BaseModel <|- - Codecool.CodecoolShop.Modal.ProductCategory
Codecool.CodecoolShop.Modal.BaseModel <|- - Codecool.CodecoolShop.Modal.Supplier

Codecool.CodecoolShop.Daos.IDao <|- - Codecool.CodecoolShop.Daos.IProductCategoryDao
Codecool.CodecoolShop.Daos.IDao <|- - Codecool.CodecoolShop.Daos.IProductDao
Codecool.CodecoolShop.Daos.IDao <|- - Codecool.CodecoolShop.Daos.ISupplierDao

Codecool.CodecoolShop.Daos.IProductCategoryDao <|- - - Codecool.CodecoolShop.Daos.Implementations.ProductCategoryDaoMemory
Codecool.CodecoolShop.Daos.IProductDao <|- - - Codecool.CodecoolShop.Daos.Implementations.ProductDaoMemory
Codecool.CodecoolShop.Daos.ISupplierDao <|- - - Codecool.CodecoolShop.Daos.Implementations.SupplierDaoMemory
Controller <|- - Codecool.CodecoolShop.Controllers.ProductController
@enduml

PlantUML version 1.2022.10beta1(Unknown compile time)
(GPL source distribution)
Java Runtime: Java(TM) SE Runtime Environment
JVM: Java HotSpot(TM) 64-Bit Server VM
Default Encoding: UTF-8
Language: en
Country: US
--></g></svg>